# xmcd
#
# Track frame offsets: 
#        150
#        20315
#        37109
#        54494
#        71458
#        93007
#        111550
#        131484
#        148499
#        166271
#        188877
#        208504
#
# Disc length: 3017 seconds
#
# Revision: 0
# Processed by: cddbd v1.5.2PL0 Copyright (c) Steve Scherf et al.
# Submitted via: ExactAudioCopyFreeDBPlugin 1.0
#
DISCID=ac0bc70c
DTITLE=張學友 - 張學友-活出生命 CD1
DYEAR=1900
DGENRE=中文流行曲
TTITLE0=First Of May
TTITLE1=但願人長久
TTITLE2=眼淚
TTITLE3=天黑黑
TTITLE4=聽海
TTITLE5=約定
TTITLE6=藍月亮
TTITLE7=天下無雙
TTITLE8=明天我要嫁給你
TTITLE9=瘋了
TTITLE10=傷追人
TTITLE11=小城大事
EXTD=
EXTT0=
EXTT1=
EXTT2=
EXTT3=
EXTT4=
EXTT5=
EXTT6=
EXTT7=
EXTT8=
EXTT9=
EXTT10=
EXTT11=
PLAYORDER=
